<?xml version="1.0" encoding="UTF-8"?>
<svg id="Layer_1" data-name="Layer 1" xmlns="http://www.w3.org/2000/svg" baseProfile="tiny" version="1.2" viewBox="0 0 300 300">
  <path d="M150.1,10.4C53.9,10.4,10.1,54.2,10.1,150.4s43.8,140,140,140,140-43.8,140-140S246.2,10.4,150.1,10.4ZM93.8,183.4h112.5c12.8,0,23.2,10.4,23.2,23.2s-10.4,23.2-23.2,23.2H77.3c-2.5,0-4.5-2-4.5-4.5s2-4.5,4.5-4.5h129c7.9,0,14.2-6.4,14.2-14.2s-6.4-14.2-14.2-14.2h-112.5c-12.8,0-23.2-10.4-23.2-23.2s10.4-23.2,23.2-23.2h112.5c7.9,0,14.2-6.4,14.2-14.2s-6.4-14.2-14.2-14.2h-112.5c-12.8,0-23.2-10.4-23.2-23.2s10.4-23.2,23.2-23.2h129c2.5,0,4.5,2,4.5,4.5s-2,4.5-4.5,4.5H93.8c-7.9,0-14.2,6.4-14.2,14.2s6.4,14.2,14.2,14.2h112.5c12.8,0,23.2,10.4,23.2,23.2s-10.4,23.2-23.2,23.2h-112.5c-7.9,0-14.2,6.4-14.2,14.2s6.4,14.2,14.2,14.2Z" fill="#000" stroke-width="0"/>
</svg>