<?xml version="1.0" encoding="UTF-8"?>
<svg id="Layer_1" data-name="Layer 1" xmlns="http://www.w3.org/2000/svg" version="1.1" viewBox="0 0 595.3 841.9">
  <defs>
    <style>
      .cls-1 {
        fill: #ec1c24;
      }

      .cls-1, .cls-2 {
        stroke-width: 0px;
      }

      .cls-2 {
        fill: #231f20;
      }
    </style>
  </defs>
  <g>
    <path class="cls-2" d="M243,384.7c1.5,1.7,2.2,3.9,2.2,6.5s-1,5.6-3,7.3-4.6,2.6-7.7,2.6-5.6-1-7.7-3c-2.1-2-3.1-4.6-3.1-7.8h5.5c0,1.6.5,3,1.5,4,1,1,2.2,1.5,3.7,1.5s2.8-.4,3.8-1.2c1-.8,1.5-1.9,1.5-3.4s-.5-2.6-1.5-3.6c-1-.9-2.7-1.8-4.9-2.5-3.2-1.1-5.6-2.4-7.1-4.1s-2.3-3.7-2.3-6.2,1-5.6,3.1-7.4c2.1-1.8,4.7-2.6,7.8-2.6s5.6,1,7.6,3c2.1,2,3.1,4.6,3.1,7.8h-5.5c0-1.6-.5-3-1.5-4-1-1-2.2-1.5-3.7-1.5s-2.8.4-3.8,1.2c-1,.8-1.5,2-1.5,3.4s.5,2.5,1.6,3.4c1.1.9,2.7,1.7,5,2.4,3.1,1,5.4,2.3,6.9,4.1Z"/>
    <path class="cls-2" d="M269.3,368.9c2.1,2,3.1,4.6,3.1,7.7s-1,5.6-3.1,7.6-4.8,3-8.3,3h-5v5.8h-5.5v-27.2h10.5c3.5,0,6.2,1,8.3,3.1ZM265.3,380.5c1.1-1.1,1.6-2.4,1.6-3.9s-.5-2.9-1.6-4-2.5-1.6-4.2-1.6h-5v11h5c1.8,0,3.2-.5,4.2-1.6Z"/>
    <path class="cls-2" d="M294.3,392.6h-15.4l-2.9,7.9h-6.2l13-34.6h7.7l13.1,34.6h-6.2l-3-7.9ZM292.3,387.4l-5.7-16.1-5.7,16.1h11.5Z"/>
    <path class="cls-2" d="M322.9,401.7c1.1-1.1,1.6-2.9,1.6-5.3h5.5c0,4-1.1,7-3.2,9.1-2.1,2.1-4.8,3.1-8.1,3.1s-5.8-1-8-3c-2.2-2-3.3-4.6-3.3-7.8v-29.2c0-3.2,1.1-5.8,3.3-7.8,2.2-2,4.8-3,8-3s6,1,8.1,3.1,3.2,5.1,3.2,9.1h-5.5c0-2.4-.5-4.2-1.6-5.3-1.1-1.1-2.4-1.7-4.2-1.7s-3,.6-4.1,1.7-1.7,2.6-1.7,4.3v28.5c0,1.8.6,3.2,1.7,4.3,1.1,1.1,2.5,1.7,4.1,1.7s3.1-.6,4.2-1.7Z"/>
    <path class="cls-2" d="M340.2,371v9.2h6.1v5.2h-6.1v9.8h7.1v5.2h-12.5v-34.6h12.5v5.2h-7.1Z"/>
  </g>
  <g>
    <path class="cls-2" d="M231.6,420.1v10.6h17.4v5.2h-17.4v6.2h-5.5v-27.2h24.9v5.2h-19.4Z"/>
    <path class="cls-2" d="M265.5,441.6h-6.5l-1.3,7.9h-5.4l6.1-34.6h7.7l7.7,44.5h-5.5l-2.8-17.7ZM264.7,436.4l-2.5-16.6-2.5,16.6h5Z"/>
    <path class="cls-2" d="M290.6,438.4c1.1-1.1,1.7-2.4,1.7-4.1h5.5c0,3.2-1.1,5.8-3.3,7.8s-4.8,3.1-8,3.1-5.8-1-8-3c-2.2-2-3.2-4.6-3.2-7.8v-4.4c0-3.2,1.1-5.8,3.2-7.8,2.2-2,4.8-3,8-3s5.8,1,8,3.1c2.2,2,3.3,4.6,3.3,7.8h-5.5c0-1.6-.6-3-1.7-4.1s-2.5-1.6-4.1-1.6-3,.6-4.1,1.7c-1.1,1.1-1.7,2.6-1.7,4.3v3.8c0,1.8.6,3.2,1.7,4.3s2.5,1.7,4.1,1.7,3-.5,4.1-1.6Z"/>
    <path class="cls-2" d="M309.3,420.1v9.2h17.4v5.2h-17.4v9.8h19.4v5.2h-24.9v-34.6h24.9v5.2h-19.4Z"/>
  </g>
  <g>
    <path class="cls-1" d="M308.5,474.3v3h-3.2v-3h3.2Z"/>
    <path class="cls-2" d="M319.9,463.7c1.1,1,1.6,2.3,1.6,3.9v2.2c0,1.5-.5,2.8-1.6,3.9-1.1,1-2.4,1.6-4,1.6s-2.9-.5-4-1.6c-1.1-1-1.6-2.3-1.6-3.9v-2.2c0-1.5.5-2.8,1.6-3.9,1.1-1,2.4-1.6,4-1.6s2.9.5,4,1.6ZM318,471.8c.6-.5.8-1.2.8-2v-2.2c0-.8-.3-1.5-.8-2-.6-.5-1.2-.8-2-.8s-1.5.3-2,.8c-.6.5-.8,1.2-.8,2v2.2c0,.8.3,1.5.8,2,.6.5,1.2.8,2,.8s1.5-.3,2-.8Z"/>
    <path class="cls-2" d="M336.6,477.3h-3.6l-5.7-6.6v11.6h-2.7v-22.2h5.5c1.4,0,2.6.5,3.6,1.4s1.5,2.1,1.5,3.4-.4,2.5-1.3,3.4c-.9.9-2,1.3-3.2,1.3h-.8l6.8,7.8ZM327.3,467.1h2.8c.7,0,1.2-.2,1.6-.7.4-.4.6-1,.6-1.6s-.2-1.2-.6-1.6c-.4-.4-1-.7-1.6-.7h-2.8v4.5Z"/>
    <path class="cls-2" d="M348.3,469.7c0,1.5-.5,2.8-1.6,3.9-1.1,1-2.4,1.6-4,1.6s-2.9-.5-4-1.6c-1.1-1-1.6-2.3-1.6-3.9v-1.9c0-1.5.5-2.8,1.6-3.9,1.1-1,2.4-1.6,4-1.6h4.2v2.6h-4c-.9,0-1.6.3-2.2.8-.6.6-.9,1.3-.9,2.2v1.7c0,.8.3,1.5.9,2,.6.5,1.3.8,2.2.8s1.5-.2,2-.6c.5-.4.7-.9.7-1.5v-.3h-3.2v-2.5h6v2.1Z"/>
  </g>
</svg>