<?xml version="1.0" encoding="UTF-8"?>
<svg id="Layer_1" data-name="Layer 1" xmlns="http://www.w3.org/2000/svg" baseProfile="tiny" version="1.2" viewBox="0 0 180 180">
  <g>
    <path d="M25.6,54.3c0,4.4,14.6,2.4,14.6,12.1s-4.7,8.4-10.8,8.4-9-2.3-10.5-4.1-.7-1.1-.7-1.8c0-1.5,1.3-2.8,2.8-2.8s1.2.2,1.8.7c1.6,1.3,3.6,2.4,6.5,2.4s4.4-.7,4.4-2.4c0-4.8-14.5-2.3-14.5-12.4s4.4-7.9,9.9-7.9,7.9,1.6,9.6,3.7c.4.5.6.9.6,1.8,0,1.5-1.3,2.8-2.8,2.8s-1.4-.4-2-.8c-1.3-.9-2.9-1.9-5.3-1.9s-3.6.8-3.6,2.2h0Z" fill="#231f20" stroke-width="0"/>
    <path d="M58.4,46.5c7.8,0,12,4.6,12,14.2s-4.3,14.3-12,14.3-5.6-.9-7-2.5v10.5c0,1.8-1.4,3.2-3.2,3.2s-3.2-1.4-3.2-3.2v-32.9c0-1.8,1.4-3.2,3.2-3.2s3.2,1.4,3.2,3.2c.9-1.5,3.7-3.6,7-3.6ZM57.5,52c-4.1,0-6.3,3-6.3,8.8s2.2,8.8,6.3,8.8,6.3-3,6.3-8.8-2.2-8.8-6.3-8.8Z" fill="#231f20" stroke-width="0"/>
    <path d="M79.8,54.4c-.6.4-1.1.6-1.8.6-1.5,0-2.8-1.2-2.8-2.8s.2-1.4.8-2c1.7-1.8,4.6-3.8,9.7-3.8,7.3,0,11.7,3.6,11.7,9.9v15.2c0,1.7-1.4,3.1-3.1,3.1s-3.1-1.4-3.1-3.1c-1.6,2.5-4.2,3.4-7.8,3.4-5.8,0-9.7-3.6-9.7-8.9s4.4-8.3,9.6-8.3h7.8v-1.1c0-2.7-2-4.4-5.4-4.4s-4.4,1.2-5.9,2.3h0ZM91.1,64.3v-1.7h-6.9c-2.6,0-4,1.2-4,3.4s1.6,3.6,4.9,3.6,6-2,6-5.3Z" fill="#231f20" stroke-width="0"/>
    <path d="M114.7,46.5c5.4,0,8.6,2.7,9.7,4.1.5.7.7,1.1.7,1.8,0,1.6-1.2,2.8-2.8,2.8s-1.7-.4-2.2-1c-.8-.8-2.3-2.3-5.3-2.3s-6.4,3.2-6.4,8.8,2.3,8.8,6.4,8.8,4.5-1.4,5.9-2.4c.7-.5,1.2-.6,1.8-.6,1.6,0,2.8,1.2,2.8,2.8s-.3,1.5-1,2.2c-1.4,1.2-4.6,3.4-9.5,3.4-8.1,0-12.9-4.6-12.9-14.3s4.8-14.2,12.9-14.2h0Z" fill="#231f20" stroke-width="0"/>
    <path d="M141.4,46.5c10,0,11.8,7.7,11.8,11.8s0,4.7-3.6,4.7h-14.6c0,4.3,3,6.2,6.9,6.2s4.4-.9,5.9-1.8c.7-.4,1.1-.7,1.9-.7,1.5,0,2.8,1.2,2.8,2.8s-.5,1.7-1,2.2c-1,.9-4.1,3.3-9.5,3.3-8.2,0-13.3-4.4-13.3-14.3s4.7-14.2,12.8-14.2h0ZM135.2,57.7h11.7c0-2.9-1.7-5.7-5.5-5.7s-5.9,2-6.2,5.7Z" fill="#231f20" stroke-width="0"/>
  </g>
  <g>
    <path d="M18.2,96.5c-1.5,0-2.7-1.2-2.7-2.7s1.2-2.7,2.7-2.7h1.2v-3.2c0-5.5,3.7-10.5,11.3-10.5s2.8,1.2,2.8,2.8-1.2,2.8-2.8,2.8c-3.3,0-4.9,1.8-4.9,4.4v3.7h4c1.5,0,2.7,1.2,2.7,2.7s-1.2,2.7-2.7,2.7h-4v19c0,1.8-1.4,3.1-3.2,3.1s-3.2-1.3-3.2-3.1v-19s-1.2,0-1.2,0Z" fill="#231f20" stroke-width="0"/>
    <path d="M41,98.3c-.6.4-1.1.6-1.8.6-1.5,0-2.8-1.2-2.8-2.8s.2-1.4.8-2c1.7-1.8,4.6-3.8,9.7-3.8,7.3,0,11.7,3.6,11.7,9.9v15.2c0,1.7-1.4,3.1-3.1,3.1s-3.1-1.4-3.1-3.1c-1.6,2.5-4.2,3.4-7.8,3.4-5.8,0-9.7-3.6-9.7-8.9s4.4-8.4,9.6-8.4h7.8v-1.1c0-2.7-2-4.4-5.4-4.4s-4.4,1.2-5.9,2.2h0ZM52.3,108.2v-1.7h-6.9c-2.6,0-4,1.2-4,3.4s1.6,3.6,4.9,3.6,6-2,6-5.3Z" fill="#231f20" stroke-width="0"/>
    <path d="M75.8,90.4c5.4,0,8.6,2.7,9.7,4.1.5.7.7,1.1.7,1.8,0,1.6-1.2,2.8-2.8,2.8s-1.7-.4-2.2-1c-.8-.8-2.3-2.3-5.3-2.3s-6.4,3.2-6.4,8.8,2.2,8.8,6.4,8.8,4.5-1.4,5.9-2.4c.7-.5,1.2-.6,1.8-.6,1.6,0,2.8,1.2,2.8,2.8s-.3,1.5-1,2.2c-1.4,1.2-4.6,3.4-9.5,3.4-8.1,0-12.9-4.6-12.9-14.3s4.8-14.2,12.9-14.2h0Z" fill="#231f20" stroke-width="0"/>
    <path d="M102.5,90.4c10,0,11.8,7.7,11.8,11.8s0,4.7-3.6,4.7h-14.6c0,4.3,3,6.2,6.9,6.2s4.4-.9,5.9-1.8c.7-.4,1.1-.7,1.9-.7,1.5,0,2.8,1.2,2.8,2.8s-.5,1.7-1,2.2c-1,.9-4.1,3.3-9.5,3.3-8.2,0-13.3-4.4-13.3-14.3s4.7-14.2,12.8-14.2h-.1ZM96.3,101.6h11.7c0-2.9-1.7-5.7-5.5-5.7s-5.9,2-6.2,5.7Z" fill="#231f20" stroke-width="0"/>
  </g>
  <g>
    <path d="M109.7,132.7c0-1.3.7-2,2-2s1.9.7,1.9,2-.7,1.9-1.9,1.9-2-.6-2-1.9Z" fill="#ec1c24" stroke-width="0"/>
    <path d="M122.3,134.8c-4,0-6.5-2.3-6.5-7.1s2.5-7.1,6.5-7.1,6.5,2.3,6.5,7.1-2.5,7.1-6.5,7.1ZM122.3,123.3c-2.1,0-3.3,1.5-3.3,4.4s1.1,4.4,3.3,4.4,3.3-1.5,3.3-4.4-1.1-4.4-3.3-4.4Z" fill="#231f20" stroke-width="0"/>
    <path d="M134.3,122.5c.6-1.2,2-1.9,3.2-1.9s1.5.7,1.5,1.5-.7,1.5-1.5,1.5c-2,0-3.2,1.3-3.2,3.3v6.2c0,.9-.7,1.6-1.6,1.6s-1.6-.7-1.6-1.6v-10.7c0-.9.7-1.6,1.6-1.6s1.6.7,1.6,1.6h0Z" fill="#231f20" stroke-width="0"/>
    <path d="M140.1,127.6c0-4.8,2.3-7.1,6.3-7.1s6.1,2,6.1,5.9v7.5c0,4.1-2,6.4-6.4,6.4s-4.2-.7-5.2-2c-.1-.2-.3-.5-.3-.9,0-.8.7-1.4,1.4-1.4s.6.1.9.4c.7.5,1.7,1.2,3.1,1.2,2.1,0,3.2-1.1,3.2-2.9v-1.1c-.6.6-1.8,1.2-3.2,1.2-3.7,0-6-2.3-6-7.1h0ZM149.4,126.5c0-2-1.2-3.2-2.9-3.2s-3.2,1.5-3.2,4.4,1.2,4.4,3.2,4.4,2.9-1.5,2.9-1.5v-4.1Z" fill="#231f20" stroke-width="0"/>
  </g>
</svg>