<?xml version="1.0" encoding="UTF-8"?>
<svg id="Layer_1" data-name="Layer 1" xmlns="http://www.w3.org/2000/svg" baseProfile="tiny" version="1.2" viewBox="0 0 160 160">
  <rect x="3" y="3" width="154" height="154" rx="10.4" ry="10.4" fill="none" stroke="#231f20" stroke-miterlimit="10" stroke-width="6"/>
  <g>
    <g>
      <path d="M20.1,98.7c-.4,0-.7-.1-.9-.4-.3-.3-.4-.6-.4-.9v-17.4c0-.3-.1-.6-.4-.9s-.6-.4-.9-.4h-2.4c-.4,0-.7-.1-.9-.4-.3-.3-.4-.6-.4-.9v-2.4c0-.4.1-.7.4-.9s.6-.4.9-.4h2.4c.4,0,.7-.1.9-.4s.4-.5.4-.9v-2.4c0-.3.1-.6.4-.9.3-.3.6-.4.9-.4h2.4c.4,0,.7-.1.9-.4.3-.3.4-.6.4-.9v-2.4c0-.3.1-.6.4-.9.3-.3.6-.4.9-.4h7.4c.3,0,.6.1.9.4.2.3.4.6.4.9v2.4c0,.4-.1.7-.4.9s-.5.4-.9.4h-7.4c-.3,0-.6.1-.9.4s-.4.6-.4.9v2.4c0,.3.1.6.4.9s.6.4.9.4h2.4c.4,0,.7.1.9.4s.4.6.4.9v2.4c0,.4-.1.7-.4.9-.3.3-.6.4-.9.4h-2.4c-.3,0-.6.1-.9.4-.3.3-.4.5-.4.9v17.4c0,.4-.1.7-.4.9-.3.2-.6.4-.9.4h-2.4Z" fill="#231f20" stroke-width="0"/>
      <path d="M38.8,98.7c-.3,0-.6-.1-.9-.4s-.4-.6-.4-.9v-2.4c0-.4-.1-.7-.4-.9-.3-.2-.6-.4-.9-.4h-2.4c-.4,0-.7-.1-.9-.4-.3-.3-.4-.6-.4-.9v-12.4c0-.3.1-.6.4-.9.3-.2.6-.4.9-.4h2.4c.4,0,.7-.1.9-.4s.4-.6.4-.9v-2.4c0-.3.1-.6.4-.9s.6-.4.9-.4h12.4c.3,0,.6.1.9.4s.4.6.4.9v22.4c0,.4-.1.7-.4.9s-.6.4-.9.4h-12.4ZM46.2,93.7c.3,0,.6-.1.9-.4.2-.3.4-.6.4-.9v-12.4c0-.3-.1-.6-.4-.9-.3-.2-.5-.4-.9-.4h-7.4c-.3,0-.6.1-.9.4-.3.3-.4.5-.4.9v12.4c0,.4.1.7.4.9.3.3.6.4.9.4h7.4Z" fill="#231f20" stroke-width="0"/>
      <path d="M67.5,98.7c-.3,0-.6-.1-.9-.4s-.4-.6-.4-.9v-2.4c0-.4-.1-.7-.4-.9-.3-.2-.6-.4-.9-.4h-2.4c-.4,0-.7-.1-.9-.4-.3-.3-.4-.6-.4-.9v-12.4c0-.3.1-.6.4-.9.3-.2.6-.4.9-.4h2.4c.4,0,.7-.1.9-.4s.4-.6.4-.9v-2.4c0-.3.1-.6.4-.9s.6-.4.9-.4h7.4c.3,0,.6.1.9.4s.4.6.4.9v2.4c0,.3-.1.6-.4.9-.3.3-.5.4-.9.4h-7.4c-.3,0-.6.1-.9.4-.3.3-.4.5-.4.9v12.4c0,.4.1.7.4.9.3.3.6.4.9.4h7.4c.3,0,.6.1.9.4s.4.6.4.9v2.4c0,.4-.1.7-.4.9-.3.3-.5.4-.9.4h-7.4Z" fill="#231f20" stroke-width="0"/>
      <path d="M91.2,98.7c-.3,0-.6-.1-.9-.4s-.4-.6-.4-.9v-2.4c0-.4-.1-.7-.4-.9-.3-.2-.6-.4-.9-.4h-2.4c-.4,0-.7-.1-.9-.4-.3-.3-.4-.6-.4-.9v-12.4c0-.3.1-.6.4-.9.3-.2.6-.4.9-.4h2.4c.4,0,.7-.1.9-.4s.4-.6.4-.9v-2.4c0-.3.1-.6.4-.9s.6-.4.9-.4h7.4c.3,0,.6.1.9.4s.4.6.4.9v2.4c0,.3.1.6.4.9.3.3.6.4.9.4h2.4c.3,0,.6.1.9.4.3.3.4.5.4.9v7.4c0,.3-.1.6-.4.9s-.6.4-.9.4h-12.4c-.4,0-.7.1-.9.4s-.4.6-.4.9v2.4c0,.4.1.7.4.9.3.3.6.4.9.4h7.4c.3,0,.6.1.9.4s.4.6.4.9v2.4c0,.4-.1.7-.4.9-.3.3-.5.4-.9.4h-7.4ZM98.6,83.7c.3,0,.6-.1.9-.4s.4-.6.4-.9v-2.4c0-.3-.1-.6-.4-.9-.3-.2-.5-.4-.9-.4h-7.4c-.3,0-.6.1-.9.4-.3.3-.4.5-.4.9v2.4c0,.3.1.6.4.9.3.3.6.4.9.4h7.4Z" fill="#231f20" stroke-width="0"/>
    </g>
    <g>
      <path d="M90.7,120.4c-.2,0-.4,0-.6-.2-.2-.2-.2-.3-.2-.6v-1.5c0-.2,0-.4.2-.6.2-.2.4-.2.6-.2h1.5c.2,0,.4,0,.6.2.2.2.2.3.2.6v1.5c0,.2,0,.4-.2.6-.2.2-.4.2-.6.2h-1.5Z" fill="#ed1c24" stroke-width="0"/>
      <path d="M106.1,120.4c-.2,0-.4,0-.6-.2-.2-.2-.2-.3-.2-.6v-1.5c0-.2,0-.4-.2-.6-.2-.2-.4-.2-.6-.2h-1.5c-.2,0-.4,0-.6-.2-.2-.2-.2-.4-.2-.6v-7.7c0-.2,0-.4.2-.5.2-.2.4-.2.6-.2h1.5c.2,0,.4,0,.6-.2.2-.2.2-.4.2-.6v-1.5c0-.2,0-.4.3-.6.2-.2.4-.3.6-.3h4.6c.2,0,.4,0,.5.2s.2.4.2.6v1.5c0,.2,0,.4.3.6.2.2.4.3.6.3h1.5c.2,0,.4,0,.6.2.2.2.3.3.3.5v7.7c0,.2,0,.4-.2.6-.2.2-.4.2-.6.2h-1.5c-.2,0-.4,0-.6.2-.2.2-.2.3-.2.6v1.5c0,.2,0,.4-.2.6-.2.2-.3.2-.5.2h-4.6ZM110.7,117.3c.2,0,.4,0,.5-.2.2-.2.2-.4.2-.6v-7.7c0-.2,0-.4-.2-.5-.2-.2-.3-.2-.5-.2h-4.6c-.2,0-.4,0-.6.2-.2.2-.2.3-.2.5v7.7c0,.2,0,.4.3.6.2.2.4.2.6.2h4.6Z" fill="#231f20" stroke-width="0"/>
      <path d="M121.7,120.4c-.2,0-.4,0-.6-.2-.2-.2-.2-.3-.2-.6v-13.9c0-.2,0-.4.2-.6.2-.2.4-.2.6-.2h7.7c.2,0,.4,0,.5.2s.2.4.2.6v1.5c0,.2,0,.4-.2.6-.2.2-.3.3-.5.3h-4.6c-.2,0-.4,0-.6.2-.2.2-.2.3-.2.5v10.8c0,.2,0,.4-.2.6-.2.2-.4.2-.6.2h-1.5Z" fill="#231f20" stroke-width="0"/>
      <path d="M137.1,126.5c-.2,0-.4,0-.6-.2s-.2-.4-.2-.6v-1.5c0-.2,0-.4.3-.6.2-.2.4-.2.6-.2h4.6c.2,0,.4,0,.5-.2s.2-.3.2-.6v-1.5c0-.2,0-.4-.2-.6-.2-.2-.3-.2-.5-.2h-4.6c-.2,0-.4,0-.6-.2-.2-.2-.2-.3-.2-.6v-1.5c0-.2,0-.4-.2-.6-.2-.2-.4-.2-.6-.2h-1.5c-.2,0-.4,0-.6-.2-.2-.2-.2-.4-.2-.6v-7.7c0-.2,0-.4.2-.5.2-.2.4-.2.6-.2h1.5c.2,0,.4,0,.6-.2.2-.2.2-.4.2-.6v-1.5c0-.2,0-.4.3-.6.2-.2.4-.3.6-.3h7.7c.2,0,.4,0,.6.3.2.2.3.4.3.6v17c0,.2,0,.4-.2.6-.2.2-.4.2-.6.2h-1.5c-.2,0-.4,0-.6.2-.2.2-.2.4-.2.6v1.5c0,.2,0,.4-.2.6-.2.2-.3.2-.5.2h-4.6ZM141.7,117.3c.2,0,.4,0,.5-.2.2-.2.2-.4.2-.6v-7.7c0-.2,0-.4-.2-.5-.2-.2-.3-.2-.5-.2h-4.6c-.2,0-.4,0-.6.2-.2.2-.2.3-.2.5v7.7c0,.2,0,.4.3.6.2.2.4.2.6.2h4.6Z" fill="#231f20" stroke-width="0"/>
    </g>
    <g>
      <path d="M16.7,54c-.4,0-.7-.1-.9-.4-.3-.3-.4-.6-.4-.9v-2.4c0-.4.1-.7.4-.9.3-.2.6-.4.9-.4h12.4c.3,0,.6-.1.9-.4.2-.3.4-.6.4-.9v-2.4c0-.4-.1-.7-.4-.9-.3-.3-.5-.4-.9-.4h-7.4c-.3,0-.6-.1-.9-.4s-.4-.6-.4-.9v-2.4c0-.4-.1-.7-.4-.9-.3-.2-.6-.4-.9-.4h-2.4c-.4,0-.7-.1-.9-.4-.3-.3-.4-.6-.4-.9v-2.4c0-.3.1-.6.4-.9.3-.2.6-.4.9-.4h2.4c.4,0,.7-.1.9-.4s.4-.6.4-.9v-2.4c0-.3.1-.6.4-.9s.6-.4.9-.4h12.4c.3,0,.6.1.9.4s.4.6.4.9v2.4c0,.3-.1.6-.4.9-.3.3-.6.4-.9.4h-12.4c-.3,0-.6.1-.9.4-.3.3-.4.5-.4.9v2.4c0,.3.1.6.4.9.3.3.6.4.9.4h7.4c.3,0,.6.1.9.4s.4.6.4.9v2.4c0,.3.1.6.4.9.3.3.6.4.9.4h2.4c.4,0,.7.1.9.4.3.3.4.6.4.9v2.4c0,.4-.1.7-.4.9-.3.3-.6.4-.9.4h-2.4c-.4,0-.7.1-.9.4-.3.3-.4.6-.4.9v2.4c0,.4-.1.7-.4.9-.3.3-.5.4-.9.4h-12.4Z" fill="#231f20" stroke-width="0"/>
      <path d="M45.4,64c-.4,0-.7-.1-.9-.4-.3-.3-.4-.6-.4-.9V30.2c0-.4.1-.7.4-.9.3-.3.6-.4.9-.4h12.4c.3,0,.6.1.9.4s.4.6.4.9v2.4c0,.3.1.6.4.9.3.3.6.4.9.4h2.4c.3,0,.6.1.9.4.3.3.4.5.4.9v12.4c0,.4-.1.7-.4.9-.3.3-.6.4-.9.4h-2.4c-.4,0-.7.1-.9.4-.3.3-.4.6-.4.9v2.4c0,.4-.1.7-.4.9-.3.3-.5.4-.9.4h-7.4c-.3,0-.6.1-.9.4s-.4.6-.4.9v7.4c0,.4-.1.7-.4.9-.3.3-.6.4-.9.4h-2.4ZM57.8,49c.3,0,.6-.1.9-.4.2-.3.4-.6.4-.9v-12.4c0-.3-.1-.6-.4-.9-.3-.2-.5-.4-.9-.4h-7.4c-.3,0-.6.1-.9.4-.3.3-.4.5-.4.9v12.4c0,.4.1.7.4.9.3.3.6.4.9.4h7.4Z" fill="#231f20" stroke-width="0"/>
      <path d="M79.1,54c-.3,0-.6-.1-.9-.4s-.4-.6-.4-.9v-2.4c0-.4-.1-.7-.4-.9-.3-.2-.6-.4-.9-.4h-2.4c-.4,0-.7-.1-.9-.4-.3-.3-.4-.6-.4-.9v-12.4c0-.3.1-.6.4-.9.3-.2.6-.4.9-.4h2.4c.4,0,.7-.1.9-.4s.4-.6.4-.9v-2.4c0-.3.1-.6.4-.9s.6-.4.9-.4h12.4c.3,0,.6.1.9.4s.4.6.4.9v22.4c0,.4-.1.7-.4.9s-.6.4-.9.4h-12.4ZM86.5,49c.3,0,.6-.1.9-.4.2-.3.4-.6.4-.9v-12.4c0-.3-.1-.6-.4-.9-.3-.2-.5-.4-.9-.4h-7.4c-.3,0-.6.1-.9.4-.3.3-.4.5-.4.9v12.4c0,.4.1.7.4.9.3.3.6.4.9.4h7.4Z" fill="#231f20" stroke-width="0"/>
      <path d="M107.8,54c-.3,0-.6-.1-.9-.4s-.4-.6-.4-.9v-2.4c0-.4-.1-.7-.4-.9-.3-.2-.6-.4-.9-.4h-2.4c-.4,0-.7-.1-.9-.4-.3-.3-.4-.6-.4-.9v-12.4c0-.3.1-.6.4-.9.3-.2.6-.4.9-.4h2.4c.4,0,.7-.1.9-.4s.4-.6.4-.9v-2.4c0-.3.1-.6.4-.9s.6-.4.9-.4h7.4c.3,0,.6.1.9.4s.4.6.4.9v2.4c0,.3-.1.6-.4.9-.3.3-.5.4-.9.4h-7.4c-.3,0-.6.1-.9.4-.3.3-.4.5-.4.9v12.4c0,.4.1.7.4.9.3.3.6.4.9.4h7.4c.3,0,.6.1.9.4s.4.6.4.9v2.4c0,.4-.1.7-.4.9-.3.3-.5.4-.9.4h-7.4Z" fill="#231f20" stroke-width="0"/>
      <path d="M131.5,54c-.3,0-.6-.1-.9-.4s-.4-.6-.4-.9v-2.4c0-.4-.1-.7-.4-.9-.3-.2-.6-.4-.9-.4h-2.4c-.4,0-.7-.1-.9-.4-.3-.3-.4-.6-.4-.9v-12.4c0-.3.1-.6.4-.9.3-.2.6-.4.9-.4h2.4c.4,0,.7-.1.9-.4s.4-.6.4-.9v-2.4c0-.3.1-.6.4-.9s.6-.4.9-.4h7.4c.3,0,.6.1.9.4s.4.6.4.9v2.4c0,.3.1.6.4.9.3.3.6.4.9.4h2.4c.3,0,.6.1.9.4.3.3.4.5.4.9v7.4c0,.3-.1.6-.4.9s-.6.4-.9.4h-12.4c-.4,0-.7.1-.9.4s-.4.6-.4.9v2.4c0,.4.1.7.4.9.3.3.6.4.9.4h7.4c.3,0,.6.1.9.4s.4.6.4.9v2.4c0,.4-.1.7-.4.9-.3.3-.5.4-.9.4h-7.4ZM138.9,38.9c.3,0,.6-.1.9-.4s.4-.6.4-.9v-2.4c0-.3-.1-.6-.4-.9-.3-.2-.5-.4-.9-.4h-7.4c-.3,0-.6.1-.9.4-.3.3-.4.5-.4.9v2.4c0,.3.1.6.4.9.3.3.6.4.9.4h7.4Z" fill="#231f20" stroke-width="0"/>
    </g>
  </g>
</svg>