<?xml version="1.0" encoding="UTF-8"?>
<svg id="uuid-1a37223e-2492-4603-a0f1-e9b105a1bf24" data-name="css3" xmlns="http://www.w3.org/2000/svg" xmlns:xlink="http://www.w3.org/1999/xlink" viewBox="0 0 82 112">
  <defs>
    <style>
      .uuid-bd5784b1-0bf8-419f-b64d-9c5939567c36 {
        fill: #2062af;
      }

      .uuid-bd5784b1-0bf8-419f-b64d-9c5939567c36, .uuid-087df140-ba09-4190-8b37-229d975eea22, .uuid-edf3d995-746e-432d-8fe5-f538014aeeef, .uuid-6ada75a6-8471-48a6-9b4b-197b688b4ac7, .uuid-5e14fabd-5b31-4af4-9536-2855fe7c0cde, .uuid-01c35748-003c-41e0-9026-16fb6be8a223, .uuid-5a030d92-93b0-4dd6-84a7-594e3890bcd8, .uuid-13bec139-fe34-4950-93e3-b1376a2d1894, .uuid-bd3dc338-a3ed-45e7-9f68-b51c4a0188bf {
        stroke-width: 0px;
      }

      .uuid-087df140-ba09-4190-8b37-229d975eea22, .uuid-01c35748-003c-41e0-9026-16fb6be8a223 {
        fill: #000;
      }

      .uuid-edf3d995-746e-432d-8fe5-f538014aeeef {
        fill: url(#uuid-55ee9f40-0253-40d3-901d-cf9f1bc6806d);
      }

      .uuid-6ada75a6-8471-48a6-9b4b-197b688b4ac7 {
        fill: url(#uuid-bc395b4b-a20a-498c-bc91-972c511ff6ab);
      }

      .uuid-5e14fabd-5b31-4af4-9536-2855fe7c0cde {
        fill: url(#uuid-d21a72df-3931-412a-93fd-06624d49dba9);
      }

      .uuid-01c35748-003c-41e0-9026-16fb6be8a223 {
        isolation: isolate;
        opacity: .05;
      }

      .uuid-5a030d92-93b0-4dd6-84a7-594e3890bcd8 {
        fill: #3c9cd7;
      }

      .uuid-13bec139-fe34-4950-93e3-b1376a2d1894 {
        fill: #fff;
      }

      .uuid-bd3dc338-a3ed-45e7-9f68-b51c4a0188bf {
        fill: url(#uuid-df09bef1-7cda-409a-967a-cd89fcf07d1f);
      }
    </style>
    <linearGradient id="uuid-df09bef1-7cda-409a-967a-cd89fcf07d1f" x1="-361.55" y1="186.77" x2="-361.55" y2="185.77" gradientTransform="translate(8347.55 3869.71) scale(23.01 -19.07)" gradientUnits="userSpaceOnUse">
      <stop offset=".39" stop-color="#d1d3d4" stop-opacity="0"/>
      <stop offset="1" stop-color="#d1d3d4"/>
    </linearGradient>
    <linearGradient id="uuid-bc395b4b-a20a-498c-bc91-972c511ff6ab" x1="-362.64" y1="187.03" x2="-362.64" y2="186.03" gradientTransform="translate(8989.89 4024.94) scale(24.64 -19.82)" gradientUnits="userSpaceOnUse">
      <stop offset=".39" stop-color="#d1d3d4" stop-opacity="0"/>
      <stop offset="1" stop-color="#d1d3d4"/>
    </linearGradient>
    <linearGradient id="uuid-55ee9f40-0253-40d3-901d-cf9f1bc6806d" x1="-375.66" y1="209.13" x2="-374.66" y2="209.13" gradientTransform="translate(16975.03 7602.19) scale(45.8 -35.99)" gradientUnits="userSpaceOnUse">
      <stop offset="0" stop-color="#e8e7e5"/>
      <stop offset="1" stop-color="#fff"/>
    </linearGradient>
    <linearGradient id="uuid-d21a72df-3931-412a-93fd-06624d49dba9" x1="-375.88" y1="180.83" x2="-374.88" y2="180.83" gradientTransform="translate(18458.4 1797.62) scale(49.72 -9.7)" gradientUnits="userSpaceOnUse">
      <stop offset="0" stop-color="#e8e7e5"/>
      <stop offset="1" stop-color="#fff"/>
    </linearGradient>
  </defs>
  <path class="uuid-bd5784b1-0bf8-419f-b64d-9c5939567c36" d="M73.14,102.77l-32.14,8.65-32.15-8.65L1.44,22.4h79.12l-7.42,80.36Z"/>
  <path class="uuid-5a030d92-93b0-4dd6-84a7-594e3890bcd8" d="M41,28.91v75.6l.07.02,26.01-7,6-68.62h-32.09Z"/>
  <path class="uuid-087df140-ba09-4190-8b37-229d975eea22" d="M22.76,10.6v-4.78h6.98V.58h-12.21v14.79h12.21v-4.78h-6.98ZM42.29,5.81h4.88V.58h-12.21v5.23c1.63,1.63,2.49,2.42,4.85,4.78h-4.85v4.77h12.21v-4.77l-4.88-4.78ZM59.6,5.81h4.88V.58h-12.21v5.23c1.63,1.63,2.49,2.42,4.85,4.78h-4.85v4.77h12.21v-4.77l-4.88-4.78Z"/>
  <path class="uuid-13bec139-fe34-4950-93e3-b1376a2d1894" d="M40.97,49.01l-23.01,9.58.76,9.49,22.24-9.51,23.66-10.12.98-9.7-24.64,10.26h0Z"/>
  <path class="uuid-bd3dc338-a3ed-45e7-9f68-b51c4a0188bf" d="M17.96,58.59l.76,9.49,22.24-9.51v-9.56l-23.01,9.58Z"/>
  <path class="uuid-6ada75a6-8471-48a6-9b4b-197b688b4ac7" d="M65.61,38.74l-24.64,10.26v9.56l23.66-10.12.98-9.71Z"/>
  <path class="uuid-edf3d995-746e-432d-8fe5-f538014aeeef" d="M18,58.59l.76,9.49,34.13.11-.76,12.65-11.23,3.16-10.8-2.73-.65-7.85h-10.03l1.31,15.16,20.28,6,20.17-5.89,2.62-30.09H18Z"/>
  <path class="uuid-01c35748-003c-41e0-9026-16fb6be8a223" d="M40.97,58.59h-23.01l.76,9.49,22.24.07v-9.56ZM40.97,83.96l-.11.03-10.8-2.73-.65-7.85h-10.03l1.31,15.16,20.28,6v-10.61Z"/>
  <path class="uuid-5e14fabd-5b31-4af4-9536-2855fe7c0cde" d="M15.89,38.74h49.72l-.98,9.7H17.09l-1.2-9.7Z"/>
  <path class="uuid-01c35748-003c-41e0-9026-16fb6be8a223" d="M40.97,38.74H15.89l1.2,9.7h23.88v-9.7Z"/>
</svg>