<?xml version="1.0" encoding="UTF-8"?>
<svg id="uuid-26856f9e-3dd9-44e7-827a-0b9c27877928" data-name="css3" xmlns="http://www.w3.org/2000/svg" viewBox="0 0 82 112">
  <defs>
    <style>
      .uuid-c5df75bd-2696-4153-ba0c-810216260c9f {
        fill: #ebebeb;
      }

      .uuid-c5df75bd-2696-4153-ba0c-810216260c9f, .uuid-3360c11a-aea4-4fa4-aeac-9a1fe3d76b8c, .uuid-8ab8a93f-13fe-4eaa-80fd-39549463a17e, .uuid-8194b943-3abe-4b9d-b348-79a44ae2edbb, .uuid-0643ffea-d90e-41ac-ab17-6752f5f65c12 {
        stroke-width: 0px;
      }

      .uuid-3360c11a-aea4-4fa4-aeac-9a1fe3d76b8c {
        fill: #e6a329;
      }

      .uuid-8ab8a93f-13fe-4eaa-80fd-39549463a17e {
        fill: #f1bf22;
      }

      .uuid-8194b943-3abe-4b9d-b348-79a44ae2edbb {
        fill: #231f20;
      }

      .uuid-0643ffea-d90e-41ac-ab17-6752f5f65c12 {
        fill: #fff;
      }
    </style>
  </defs>
  <path class="uuid-3360c11a-aea4-4fa4-aeac-9a1fe3d76b8c" d="M80.8,22.38H2.24l7.36,79.87,31.91,9.05,31.91-9.05,7.37-79.87Z"/>
  <path class="uuid-8ab8a93f-13fe-4eaa-80fd-39549463a17e" d="M41.51,28.88v75.64l25.86-7.32,6.29-68.32h-32.15Z"/>
  <path class="uuid-0643ffea-d90e-41ac-ab17-6752f5f65c12" d="M62.08,38.68H22.33l-2.77,29.9.06-.19h33.77l-1.1,12.65-10.78,3.1-10.94-3.15-.66-7.66h-9.93l1.42,15.3,20.1,5.71,20.11-5.71,2.77-30.03H28.55l.46-10.01h24.87l.37,5.73h10.01l-2.18-15.65Z"/>
  <path class="uuid-c5df75bd-2696-4153-ba0c-810216260c9f" d="M41.52,38.68h-19.19l-2.77,29.9.06-.19h21.9v-9.75h-11.57l.46-10.01h11.12v-9.95ZM29.95,73.34h-9.95l1.42,15.29,20.1,5.7v-10.18l-10.94-3.16-.63-7.66Z"/>
  <path class="uuid-8194b943-3abe-4b9d-b348-79a44ae2edbb" d="M33.87,10.6h-6.99v5.02h12V.71h-5v9.89ZM56.15.79h-12.19v5.22c1.63,1.63,2.48,2.41,4.88,4.77h-4.88v4.76h12.19v-4.75l-4.87-4.77h4.88V.79Z"/>
</svg>