<?xml version="1.0" encoding="UTF-8"?>
<svg id="Layer_1" xmlns="http://www.w3.org/2000/svg" xmlns:xlink="http://www.w3.org/1999/xlink" version="1.1" viewBox="0 0 27.2 207.3">
  <!-- Generator: Adobe Illustrator 29.3.1, SVG Export Plug-In . SVG Version: 2.1.0 Build 151)  -->
  <defs>
    <style>
      .st0 {
        isolation: isolate;
        fill: rgba(128,128,128,0.05);
      }
    </style>
  </defs>
  <g class="st0">
    <path d="M17.4,192.5c2.7-.6,4.6-2.2,4.6-5.5s-1.1-3.7-3.3-3.7c-2.2.2-2.5,1.1-4,5.5-1.3,4.2-3.5,6.2-7.2,6.2s-6.9-3.2-6.9-7.9,2.2-6.7,5.4-7.8l1.9,3.8c-2,.8-3,2.3-3,4.1s1,3.3,2.7,3.3,2.8-1.3,3.7-4.8c1.1-4.4,3.1-6.9,7.2-6.9s7.7,3.4,7.7,8.4-2.6,8.5-7.4,9.5l-1.5-4.1Z"/>
    <path d="M.9,172.7v-9.1c0-5.1,3-7.8,7.6-7.8s7.6,2.7,7.6,7.8v4.4h9.8v4.7H.9ZM11.9,163.8c0-2.1-1.1-3.3-3.3-3.3s-3.3,1.2-3.3,3.3v4.3h6.7v-4.3Z"/>
    <path d="M.9,145.5v-5.1l25.1-7.9v4.8l-5.8,1.8v7.7l5.8,1.8v4.8l-25.1-7.9ZM15.9,140.4l-8.7,2.6,8.7,2.6v-5.2Z"/>
    <path d="M.7,119.8c0-4.8,2.5-7.9,7.6-9.4l1.4,4.4c-3.6.9-4.6,2.8-4.6,5s.6,3.1,1.9,4.3c1.3,1.1,3.5,1.7,6.6,1.7s5.3-.6,6.6-1.7,1.9-2.6,1.9-4.3-1-4.1-4.6-5l1.4-4.4c5,1.5,7.6,4.7,7.6,9.4s-4.4,10.6-12.8,10.6S.7,125.7.7,119.8Z"/>
    <path d="M.9,106.4v-15.9h4.3v11.2h5.3v-9.5h4.3v9.5h6.9v-11.6h4.3v16.3H.9Z"/>
    <path d="M.9,84.2v-15.6h4.7v11h5.2v-9.2h4.3v9.2h10.9v4.7H.9Z"/>
    <path d="M.9,56.7v-5.1l25.1-7.9v4.8l-5.8,1.8v7.7l5.8,1.8v4.8L.9,56.7ZM15.9,51.6l-8.7,2.6,8.7,2.6v-5.2Z"/>
    <path d="M.7,31c0-4.8,2.5-7.9,7.6-9.4l1.4,4.4c-3.6.9-4.6,2.8-4.6,5s.6,3.1,1.9,4.3c1.3,1.1,3.5,1.7,6.6,1.7s5.3-.6,6.6-1.7,1.9-2.6,1.9-4.3-1-4.1-4.6-5l1.4-4.4c5,1.5,7.6,4.7,7.6,9.4s-4.4,10.6-12.8,10.6S.7,36.9.7,31Z"/>
    <path d="M.9,17.6V1.7h4.3v11.2h5.3V3.5h4.3v9.5h6.9V1.4h4.3v16.3H.9Z"/>
  </g>
</svg>