<?xml version="1.0" encoding="UTF-8"?>
<svg id="Layer_1" xmlns="http://www.w3.org/2000/svg" version="1.1" viewBox="0 0 676 63.8">
  <!-- Generator: Adobe Illustrator 29.2.1, SVG Export Plug-In . SVG Version: 2.1.0 Build 116)  -->
  <defs>
    <style>
      .st0 {
        fill: #231f20;
      }
    </style>
  </defs>
  <path class="st0" d="M204.1,38.3v25.5h12.8V12.8l-12.8-12.8h-38.3v8.5l-4.3,4.3h-8.5v51h12.8v-25.5h38.3ZM182.8,25.5l-8.5,8.5h-8.5V12.8h38.3v12.8h-21.3Z"/>
  <path class="st0" d="M89.3,0v8.5l-4.3,4.3h-8.5v51h12.8v-25.5h38.3v-8.5l4.3-4.3h8.5v-12.8L127.6,0h-38.3ZM127.6,12.8v12.8h-38.3v-12.8h38.3Z"/>
  <polygon class="st0" points="51 63.8 63.8 51 63.8 38.3 51 25.5 12.8 25.5 12.8 12.8 63.8 12.8 63.8 0 12.8 0 12.8 8.5 8.5 12.8 0 12.8 0 25.5 12.2 37.7 12.2 38.3 51 38.3 51 51 0 51 0 63.8 51 63.8"/>
  <polygon class="st0" points="242.4 12.8 280.6 12.8 280.6 25.5 293.4 25.5 293.4 12.8 280.6 0 242.4 0 242.4 8.5 238.1 12.8 229.6 12.8 229.6 51 242.4 63.8 293.4 63.8 293.4 51 242.4 51 242.4 12.8"/>
  <polygon class="st0" points="318.9 12.8 369.9 12.8 369.9 0 318.9 0 318.9 8.5 314.6 12.8 306.1 12.8 306.1 51 318.9 63.8 369.9 63.8 369.9 51 318.9 51 318.9 38.3 370.5 38.3 370.5 25.5 336.5 25.5 328 34 318.9 34 318.9 12.8"/>
  <polygon class="st0" points="395.4 12.8 446.4 12.8 446.4 0 395.4 0 395.4 8.5 391.1 12.8 382.6 12.8 382.6 63.8 395.4 63.8 395.4 38.3 446.4 38.3 446.4 25.5 412.4 25.5 403.9 34 395.4 34 395.4 12.8"/>
  <path class="st0" d="M510.2,38.3v25.5h12.8V12.8l-12.8-12.8h-38.3v8.5l-4.3,4.3h-8.5v51h12.8v-25.5h38.3ZM488.9,25.5l-8.5,8.5h-8.5V12.8h38.3v12.8h-21.3Z"/>
  <polygon class="st0" points="548.4 12.8 586.7 12.8 586.7 25.5 599.5 25.5 599.5 12.8 586.7 0 548.4 0 548.4 8.5 544.2 12.8 535.7 12.8 535.7 51 548.4 63.8 599.5 63.8 599.5 51 548.4 51 548.4 12.8"/>
  <polygon class="st0" points="625 12.8 676 12.8 676 0 625 0 625 8.5 620.7 12.8 612.2 12.8 612.2 51 625 63.8 676 63.8 676 51 625 51 625 38.3 676.6 38.3 676.6 25.5 642.6 25.5 634.1 34 625 34 625 12.8"/>
</svg>