<?xml version="1.0" encoding="UTF-8"?>
<svg id="Layer_1" xmlns="http://www.w3.org/2000/svg" version="1.1" viewBox="0 0 676 63.8">
  <!-- Generator: Adobe Illustrator 29.2.1, SVG Export Plug-In . SVG Version: 2.1.0 Build 116)  -->
  <defs>
    <style>
      .st0 {
        fill: #231f20;
      }
    </style>
  </defs>
  <path class="st0" d="M204.3,41.6v19.8c0,1.6,1.3,2.8,2.8,2.8h7.1c1.6,0,2.8-1.3,2.8-2.8V14.4c0-.8-.3-1.5-.8-2l-11.1-11.1c-.5-.5-1.3-.8-2-.8h-34.3c-1.6,0-2.8,1.3-2.8,2.8v4.5c0,.8-.3,1.5-.8,2l-2.6,2.6c-.5.5-1.3.8-2,.8h-4.5c-1.6,0-2.8,1.3-2.8,2.8v45.3c0,1.6,1.3,2.8,2.8,2.8h7.1c1.6,0,2.8-1.3,2.8-2.8v-19.8c0-1.6,1.3-2.8,2.8-2.8h32.6c1.6,0,2.8,1.3,2.8,2.8ZM182.2,26.8l-6.8,6.8c-.5.5-1.3.8-2,.8h-4.5c-1.6,0-2.8-1.3-2.8-2.8v-15.6c0-1.6,1.3-2.8,2.8-2.8h32.6c1.6,0,2.8,1.3,2.8,2.8v7.1c0,1.6-1.3,2.8-2.8,2.8h-17.2c-.8,0-1.5.3-2,.8Z"/>
  <path class="st0" d="M89.5,3.3v4.5c0,.8-.3,1.5-.8,2l-2.6,2.6c-.5.5-1.3.8-2,.8h-4.5c-1.6,0-2.8,1.3-2.8,2.8v45.4c0,1.6,1.3,2.8,2.8,2.8h7.1c1.6,0,2.8-1.3,2.8-2.8v-19.8c0-1.6,1.3-2.8,2.8-2.8h32.6c1.6,0,2.8-1.3,2.8-2.8v-4.5c0-.8.3-1.5.8-2l2.6-2.6c.5-.5,1.3-.8,2-.8h7.3v-12.8l-11.9-11.9c-.5-.5-1.3-.8-2-.8h-34.3c-1.6,0-2.8,1.3-2.8,2.8ZM127.8,16.1v7.1c0,1.6-1.3,2.8-2.8,2.8h-32.6c-1.6,0-2.8-1.3-2.8-2.8v-7.1c0-1.6,1.3-2.8,2.8-2.8h32.6c1.6,0,2.8,1.3,2.8,2.8Z"/>
  <path class="st0" d="M52.1,63.5l11.1-11.1c.5-.5.8-1.3.8-2v-10.4c0-.8-.3-1.5-.8-2l-11.1-11.1c-.5-.5-1.3-.8-2-.8H15.8c-1.6,0-2.8-1.3-2.8-2.8v-7.1c0-1.6,1.3-2.8,2.8-2.8h45.4c1.6,0,2.8-1.3,2.8-2.8V3.3c0-1.6-1.3-2.8-2.8-2.8H15.8c-1.6,0-2.8,1.3-2.8,2.8v4.5c0,.8-.3,1.5-.8,2l-2.6,2.6c-.5.5-1.3.8-2,.8H3c-1.6,0-2.8,1.3-2.8,2.8v8.7c0,.8.3,1.5.8,2l11.3,11.3v.6h36c1.6,0,2.8,1.3,2.8,2.8v7.1c0,1.6-1.3,2.8-2.8,2.8H3c-1.6,0-2.8,1.3-2.8,2.8v7.1c0,1.6,1.3,2.8,2.8,2.8h47c.8,0,1.5-.3,2-.8Z"/>
  <path class="st0" d="M245.4,13.3h32.6c1.6,0,2.8,1.3,2.8,2.8v7.1c0,1.6,1.3,2.8,2.8,2.8h7.1c1.6,0,2.8-1.3,2.8-2.8v-8.8c0-.8-.3-1.5-.8-2l-11.1-11.1c-.5-.5-1.2-.8-2-.8h-34.3c-1.6,0-2.8,1.3-2.8,2.8v4.5c0,.7-.3,1.5-.8,2l-2.6,2.6c-.5.5-1.2.8-2,.8h-4.5c-1.6,0-2.8,1.3-2.8,2.8v34.3c0,.8.3,1.5.8,2l11.1,11.1c.5.5,1.2.8,2,.8h47c1.6,0,2.8-1.3,2.8-2.8v-7.1c0-1.6-1.3-2.8-2.8-2.8h-45.4c-1.6,0-2.8-1.3-2.8-2.8V16.1c0-1.6,1.3-2.8,2.8-2.8Z"/>
  <path class="st0" d="M321.9,13.3h45.5c1.5,0,2.8-1.2,2.8-2.8V3.3c0-1.5-1.2-2.8-2.8-2.8h-45.5c-1.5,0-2.8,1.2-2.8,2.8v4.6c0,.7-.3,1.4-.8,1.9l-2.6,2.6c-.5.5-1.2.8-1.9.8h-4.6c-1.5,0-2.8,1.2-2.8,2.8v34.4c0,.7.3,1.4.8,1.9l11.1,11.1c.5.5,1.2.8,1.9.8h47.1c1.5,0,2.8-1.2,2.8-2.8v-7.2c0-1.5-1.2-2.8-2.8-2.8h-45.5c-1.5,0-2.8-1.2-2.8-2.8v-7.2c0-1.5,1.2-2.8,2.8-2.8h46.1c1.5,0,2.8-1.2,2.8-2.8v-7.2c0-1.5-1.2-2.8-2.8-2.8h-30.1c-.7,0-1.4.3-1.9.8l-6.9,6.9c-.5.5-1.2.8-1.9.8h-5.2c-1.5,0-2.8-1.2-2.8-2.8v-15.7c0-1.5,1.2-2.8,2.8-2.8Z"/>
  <path class="st0" d="M398.4,13.3h45.4c1.6,0,2.8-1.3,2.8-2.8V3.3c0-1.6-1.3-2.8-2.8-2.8h-45.4c-1.6,0-2.8,1.3-2.8,2.8v4.5c0,.7-.3,1.5-.8,2l-2.6,2.6c-.5.5-1.2.8-2,.8h-7.3v51h9.9c1.6,0,2.8-1.3,2.8-2.8v-19.9c0-1.6,1.3-2.8,2.8-2.8h45.4c1.6,0,2.8-1.3,2.8-2.8v-7.1c0-1.6-1.3-2.8-2.8-2.8h-30c-.7,0-1.5.3-2,.8l-6.9,6.9c-.5.5-1.2.8-2,.8h-4.5c-1.6,0-2.8-1.3-2.8-2.8v-15.6c0-1.6,1.3-2.8,2.8-2.8Z"/>
  <path class="st0" d="M551.5,13.3h32.6c1.6,0,2.8,1.3,2.8,2.8v7.1c0,1.6,1.3,2.8,2.8,2.8h7.1c1.6,0,2.8-1.3,2.8-2.8v-8.7c0-.8-.3-1.5-.8-2l-11.1-11.1c-.5-.5-1.3-.8-2-.8h-34.3c-1.6,0-2.8,1.3-2.8,2.8v4.5c0,.8-.3,1.5-.8,2l-2.6,2.6c-.5.5-1.3.8-2,.8h-4.5c-1.6,0-2.8,1.3-2.8,2.8v34.3c0,.8.3,1.5.8,2l11.1,11.1c.5.5,1.3.8,2,.8h47c1.6,0,2.8-1.3,2.8-2.8v-7.1c0-1.6-1.3-2.8-2.8-2.8h-45.4c-1.6,0-2.8-1.3-2.8-2.8V16.1c0-1.6,1.3-2.8,2.8-2.8Z"/>
  <path class="st0" d="M628,13.3h45.4c1.6,0,2.8-1.3,2.8-2.8V3.3c0-1.6-1.3-2.8-2.8-2.8h-45.4c-1.6,0-2.8,1.3-2.8,2.8v4.5c0,.7-.3,1.5-.8,2l-2.6,2.6c-.5.5-1.2.8-2,.8h-4.5c-1.6,0-2.8,1.3-2.8,2.8v34.3c0,.7.3,1.5.8,2l11.1,11.1c.5.5,1.2.8,2,.8h47c1.6,0,2.8-1.3,2.8-2.8v-7.1c0-1.6-1.3-2.8-2.8-2.8h-45.4c-1.6,0-2.8-1.3-2.8-2.8v-7.1c0-1.6,1.3-2.8,2.8-2.8h46c1.6,0,2.8-1.3,2.8-2.8v-7.1c0-1.6-1.3-2.8-2.8-2.8h-30c-.7,0-1.5.3-2,.8l-6.9,6.9c-.5.5-1.2.8-2,.8h-5.1c-1.6,0-2.8-1.3-2.8-2.8v-15.6c0-1.6,1.3-2.8,2.8-2.8Z"/>
  <path class="st0" d="M510,41.6v19.8c0,1.6,1.3,2.8,2.8,2.8h7.1c1.6,0,2.8-1.3,2.8-2.8V14.4c0-.8-.3-1.5-.8-2l-11.1-11.1c-.5-.5-1.3-.8-2-.8h-34.3c-1.6,0-2.8,1.3-2.8,2.8v4.5c0,.8-.3,1.5-.8,2l-2.6,2.6c-.5.5-1.3.8-2,.8h-4.5c-1.6,0-2.8,1.3-2.8,2.8v45.3c0,1.6,1.3,2.8,2.8,2.8h7.1c1.6,0,2.8-1.3,2.8-2.8v-19.8c0-1.6,1.3-2.8,2.8-2.8h32.6c1.6,0,2.8,1.3,2.8,2.8ZM488,26.8l-6.8,6.8c-.5.5-1.3.8-2,.8h-4.5c-1.6,0-2.8-1.3-2.8-2.8v-15.6c0-1.6,1.3-2.8,2.8-2.8h32.6c1.6,0,2.8,1.3,2.8,2.8v7.1c0,1.6-1.3,2.8-2.8,2.8h-17.2c-.8,0-1.5.3-2,.8Z"/>
</svg>