<?xml version="1.0" encoding="utf-8"?>
<!-- Generator: Adobe Illustrator 29.3.1, SVG Export Plug-In . SVG Version: 9.03 Build 55982)  -->
<svg version="1.1" id="Layer_1" xmlns="http://www.w3.org/2000/svg" xmlns:xlink="http://www.w3.org/1999/xlink"
	 viewBox="0 0 89.9 144.2" xml:space="preserve">
<style>
path {
	fill: none;
	fill: rgba(141,136,127,0.066);
	stroke-width: 3px;
	vector-effect: non-scaling-stroke;
	shape-rendering: geometricPrecision;
	stroke-dashoffset: 8px;
}
</style>
<g>
	<path d="M45.4,76.7L45.4,76.7c3.2,1.3,6.2,2.7,9.1,4l2.2-19c-3.9-1.7-7.5-3.2-10.9-4.7c-3.7-1.7-7-3.3-9.7-5.4
		c-1.8-1.4-3.4-2.9-4.5-4.8c-1.6-2.4-2.4-5.4-2.4-8.8c0-2.5,0.6-4.8,1.6-6.9c1-2.1,2.5-3.8,4.3-5.3c3.6-2.9,8.4-4.5,13.7-4.5
		c0,0,0,0,0,0c5.2,0,9.7,1,13.8,3.1c3.4,1.8,6.5,4.4,9.2,7.7l12.8-11.6c-3.3-4.3-7.7-8.3-13.3-11.2C65.1,6.1,57.6,4,48.7,4
		c-8.4,0-16.1,2-22.3,5.5c-6.2,3.5-11,8.6-13.8,15.1c-1.9,4.3-3,9.2-3,14.6c0,4.8,0.9,8.9,2.6,12.6c1.7,3.7,4.1,6.9,7.2,9.8
		C25.6,67.5,34.7,72.2,45.4,76.7 M57.8,87l-3.6,31.3c2.1-0.4,4.1-1.1,5.9-2c3-1.6,5.4-3.9,6.8-7.1c1-2.1,1.5-4.6,1.5-7.6
		c0-2.5-0.6-4.6-1.7-6.6c-1.1-1.9-2.8-3.7-5-5.4C60.6,88.8,59.3,87.9,57.8,87 M4.8,110.8C7,117,11.3,124,18.2,129.6
		c7.1,5.8,16.8,10.1,29.5,10.5l2-17.3c-0.1,0-0.1,0-0.2,0c0,0,0,0,0,0c-8,0-14.7-2.8-19.8-7.1c-4.4-3.7-7.6-8.6-9.5-13.8L4.8,110.8
		 M49.5,144.2c-14.5,0-25.8-4.8-33.9-11.4c-8.1-6.6-13-15-15.2-22.3L0,108.9l22.5-13l0.7,2.4c1.7,5.4,4.7,10.5,9.1,14.3
		c4.4,3.7,10.1,6.1,17.2,6.1h0c0.2,0,0.4,0,0.6,0L54,85c-3.1-1.5-6.5-3-10.2-4.6h0l0,0c-8.2-3.4-15.5-7-21.6-11.3
		c-6.1-4.3-10.9-9.4-13.7-15.7c-1.9-4.2-2.9-8.9-2.9-14.3c0-6,1.2-11.4,3.3-16.2c2.1-4.8,5.3-9,9.2-12.4C25.9,3.7,36.6,0,48.7,0h0
		c9.5,0,17.7,2.2,24.5,5.8c6.8,3.6,12.1,8.5,15.8,14l1,1.5L71.2,38.1l-1.3-1.8c-2.9-3.8-5.9-6.5-9.2-8.3c-3.4-1.8-7.2-2.6-11.9-2.6
		h0c-3.3,0-6.4,0.8-8.9,2.1c-2.5,1.3-4.4,3.2-5.5,5.4c-0.7,1.5-1.2,3.2-1.2,5.1c0,2.7,0.6,4.8,1.8,6.6c1.1,1.8,2.9,3.4,5.2,4.9
		c4.6,3,11.5,5.5,19.5,9.1l1.4,0.6l-2.7,23.5c0.6,0.4,1.3,0.7,1.9,1.1c4.3,2.6,7.8,5.5,10.1,9.3c1.5,2.5,2.3,5.4,2.3,8.6
		c0,3.5-0.7,6.6-1.9,9.2c-1.2,2.7-3,4.9-5.1,6.7c-3.3,2.7-7.3,4.3-11.7,4.9l-2.3,19.9l-0.2,1.8H49.5L49.5,144.2"/>
</g>
</svg>
