<?xml version="1.0" encoding="UTF-8"?>
<svg xmlns="http://www.w3.org/2000/svg" preserveAspectRatio="meet" viewBox="0 0 620 620">
    <title>spaceface logo</title>
    <style>
        path {}
        #spaceface-logo-background path {
            fill: rgba(145, 143, 157, 0.05);
        }
        #spaceface-logo-sign path {
            fill: none;
            stroke: tomato;
            stroke-width: 12px;
            opacity: 0.5;
        }
    </style>
    <filter id="invert">
        <feColorMatrix id="invert" in="SourceGraphic" type="matrix"
            values="-1  0  0  0  1 
                    0 -1  0  0  1 
                    0  0 -1  0  1
                    0  0  0  1  0
                "/>
    </filter>

    <filter id="filter">
        <feColorMatrix
        type="matrix"
        values=" 0.311  0.414  0.062  0.020  0.226 
                0.042  0.368  0.294  0.015  0.222 
                0.271  1.050  0.252  0.262  0.468 
                0.000  1.000  1.000  65.00  0.000">
        </feColorMatrix>
    </filter>

    <!-- background -->
    <g id="spaceface-logo-background">
        <path d="
            M 310,  615
            C 376,  615,  481,  615,  548,  548
            C 615,  481,  615,  376,  615,  310
            C 615,  244,  615,  139,  548,   72
            C 481,    5,  376,    5,  310,    5
            C 244,    5,  139,    5,   72,   72
            C   5,  139,    5,  244,    5,  310
            C   5,  376,    5,  481,   72,  548
            C 139,  615,  244,  615,  310,  615 Z
        " />
    </g>
    <!-- / background -->

    <!-- sign -->
    <!-- filter="url(#invert) -->
    <g id="spaceface-logo-sign">
        <path d="
            M 510 110 
            L 160 110 
            a 50 50 0 0 0 0 100 
            L 460 210 
            a 50 50 0 0 1 0 100 
            L 160 310 
            a 50 50 0 0 0 0 100 
            L 460 410 
            a 50 50 0 0 1 0 100 
            L 110 510
        " />
    </g>
    <!--
    M 510 110: Move to the starting point (510, 110).
    L 160 110: Draw a line to (160, 110).

    a 50 50 0 0 0 0 100: Draw an arc to create the downward curve.
    L 460 210: Draw a line to (460, 210).

    a 50 50 0 0 1 0 100: Draw an arc to create the upward curve.
    L 160 310: Draw a line to (160, 310).

    a 50 50 0 0 0 0 100: Draw an arc to create the downward curve.
    L 460 410: Draw a line to (460, 410).

    a 50 50 0 0 1 0 100: Draw an arc to create the upward curve.
    L 110 510: Draw the final horizontal line from (460, 510) to (110, 510).
    -->
    <!-- / sign -->
</svg>
