<?xml version="1.0" encoding="UTF-8"?>
<svg id="Layer_1" data-name="Layer 1" xmlns="http://www.w3.org/2000/svg" baseProfile="tiny" version="1.2" viewBox="0 0 103 83.2">
  <path d="M23.2,18s-2.2-.3-3.1-.3-1.7.4-1.7,1.1.4.9,2.2,1.5c2.3.7,3,1.4,3,3.1s-1.6,3.4-3.7,3.4-3.6-.5-3.6-.5l.2-1.7s2.1.3,3.2.3,1.7-.5,1.7-1.4-.4-1-1.9-1.4c-2.4-.7-3.3-1.5-3.3-3.2s1.5-3.2,3.6-3.2,3.5.4,3.5.4l-.2,1.7Z" fill="#231f20" stroke-width="0"/>
  <path d="M23.5,40.9c-.7.2-2.1.4-3.1.4-3.3,0-4.1-1.8-4.1-5.5s.9-5.5,4.1-5.5,2.5.3,3.1.4v1.7c-.8-.1-2.1-.2-2.8-.2-1.6,0-2.2.6-2.2,3.6s.4,3.6,2.2,3.6,2.1-.1,2.7-.2v1.8Z" fill="#231f20" stroke-width="0"/>
  <path d="M29.8,30.4h6.9v1.9h-4.7v2.5h3.8v1.8h-3.8v2.6h4.7v1.9h-6.9v-10.7Z" fill="#231f20" stroke-width="0"/>
  <path d="M17.8,44.8h4.1l2.4,10.7h-2.2l-.4-1.9h-3.7l-.4,1.9h-2.2l2.4-10.7ZM18.4,51.6h2.9l-1.1-5.1h-.8l-1.1,5.1Z" fill="#231f20" stroke-width="0"/>
  <path d="M45,16h4.1l2.4,10.7h-2.2l-.4-1.9h-3.7l-.4,1.9h-2.2l2.4-10.7ZM45.6,22.9h2.9l-1.1-5.1h-.8l-1.1,5.1Z" fill="#231f20" stroke-width="0"/>
  <path d="M43.9,44.8h6.9v1.9h-4.7v2.5h3.8v1.8h-3.8v2.6h4.7v1.9h-6.9v-10.7Z" fill="#231f20" stroke-width="0"/>
  <g>
    <path d="M62.3,68.4h1.5v1.7h-1.5v-1.7Z" fill="#231f20" stroke-width="0"/>
    <path d="M66.1,66.6c0-2.4.7-3.7,2.9-3.7s2.9,1.3,2.9,3.7-.7,3.6-2.9,3.6-2.9-1.2-2.9-3.6ZM70.4,66.6c0-1.6-.3-2.4-1.4-2.4s-1.4.8-1.4,2.4.3,2.4,1.4,2.4,1.4-.7,1.4-2.4Z" fill="#231f20" stroke-width="0"/>
    <path d="M75.8,67.8v2.4h-1.4v-7h2.7c1.6,0,2.5.7,2.5,2.3s-.4,1.6-1,2l1,2.7h-1.6l-.8-2.4h-1.4ZM77.1,64.3h-1.3v2.2h1.3c.7,0,1-.5,1-1.1s-.3-1.1-1-1.1Z" fill="#231f20" stroke-width="0"/>
    <path d="M85,66.3h2v3.7s-1.5.2-2.4.2c-2.3,0-2.9-1.3-2.9-3.6s.7-3.6,2.8-3.6,2.5.3,2.5.3v1.1s-1.3-.1-2.2-.1-1.6.4-1.6,2.4.3,2.4,1.5,2.4.9,0,.9,0v-1.4h-.6v-1.2Z" fill="#231f20" stroke-width="0"/>
  </g>
  <g>
    <path d="M32.3,23.6v3.1h-2.2v-10.7h3.9c2.5,0,3.8,1.2,3.8,3.7s-1.3,3.9-3.8,3.9h-1.8ZM34,21.7c1.1,0,1.6-.7,1.6-2s-.5-1.8-1.6-1.8h-1.7v3.9h1.7Z" fill="#231f20" stroke-width="0"/>
    <path d="M37.3,55.2c-.7.2-2.1.4-3.1.4-3.3,0-4.1-1.8-4.1-5.5s.9-5.5,4.1-5.5,2.5.3,3.1.4v1.7c-.8-.1-2.1-.2-2.8-.2-1.6,0-2.2.6-2.2,3.6s.4,3.6,2.2,3.6,2.1-.1,2.7-.2v1.8Z" fill="#231f20" stroke-width="0"/>
  </g>
  <path d="M43.9,30.4h6.8v1.9h-4.6v3.1h3.8v1.9h-3.8v3.8h-2.2v-10.7Z" fill="#231f20" stroke-width="0"/>
  <rect x="5.8" y="7.9" width="55.3" height="55.3" rx="2.6" ry="2.6" fill="none" stroke="#231f20" stroke-miterlimit="10" stroke-width="1.5"/>
  <rect x="57.2" y="58" width="36.6" height="17.2" rx="2.6" ry="2.6" fill="none" stroke="#231f20" stroke-miterlimit="10" stroke-width="1.5"/>
</svg>