<?xml version="1.0" encoding="UTF-8"?>
<svg id="a" data-name="css3" xmlns="http://www.w3.org/2000/svg" viewBox="0 0 82 112">
  <defs>
    <style>
      .d {
        fill: #2062af;
      }

      .d, .e, .f, .g, .h {
        stroke-width: 0px;
      }

      .e {
        fill: #ddd;
      }

      .f {
        fill: #3c9cd7;
      }

      .g {
        fill: #231f20;
      }

      .h {
        fill: #fff;
      }
    </style>
  </defs>
  <path class="d" d="M80.04,22.45H1.47l7.36,79.87,31.91,9.05,31.91-9.05,7.37-79.87Z"/>
  <path class="f" d="M40.75,28.96v75.64l25.86-7.32,6.29-68.32h-32.15Z"/>
  <polygon class="g" points="22.76 10.6 22.76 5.81 29.73 5.81 29.73 .58 17.52 .58 17.52 15.37 29.73 15.37 29.73 10.6 22.76 10.6"/>
  <path class="g" d="M42.29,5.81h4.88V.58h-12.21v5.23c1.63,1.63,2.49,2.42,4.85,4.78h-4.85v4.77h12.21v-4.77l-4.88-4.78Z"/>
  <path class="g" d="M59.6,5.81h4.88V.58h-12.21v5.23c1.63,1.63,2.49,2.42,4.85,4.78h-4.85v4.77h12.21v-4.77l-4.88-4.78Z"/>
  <polygon class="f" points="63.53 58.59 40.75 58.59 40.75 68.15 52.63 68.18 51.87 80.83 40.75 83.96 40.75 94.57 60.92 88.69 63.53 58.59"/>
  <polygon class="f" points="64.37 48.45 64.37 48.44 64.37 48.44 65.35 38.74 40.75 38.74 40.75 48.44 42.06 48.44 40.75 48.99 40.75 58.55 64.37 48.45"/>
  <polygon class="e" points="15.63 38.74 16.83 48.44 40.75 48.44 40.75 38.74 15.63 38.74"/>
  <polygon class="e" points="40.65 58.59 40.71 58.56 40.75 58.55 40.75 48.99 40.71 49.01 17.7 58.59 18.47 68.07 18.5 68.06 18.5 68.07 40.75 68.15 40.75 58.59 40.65 58.59"/>
  <polygon class="e" points="40.75 83.96 29.81 80.83 29.18 73.42 19.15 73.42 20.46 88.57 40.75 94.57 40.75 94.57 40.75 83.96 40.75 83.96"/>
  <polygon class="h" points="63.53 58.59 40.75 58.59 40.75 68.15 52.63 68.18 51.87 80.83 40.75 83.96 40.75 94.57 60.92 88.69 63.53 58.59"/>
  <polygon class="h" points="64.37 48.45 64.37 48.44 64.37 48.44 65.35 38.74 40.75 38.74 40.75 48.44 42.06 48.44 40.75 48.99 40.75 58.55 64.37 48.45"/>
</svg>