<?xml version="1.0" encoding="UTF-8"?>
<svg id="b" data-name="html5" xmlns="http://www.w3.org/2000/svg" viewBox="0 0 82 112">
  <defs>
    <style>
      .d {
        fill: #e44d26;
      }

      .d, .e, .f, .g, .h {
        stroke-width: 0px;
      }

      .e {
        fill: #ddd;
      }

      .f {
        fill: #f16529;
      }

      .g {
        fill: #231f20;
      }

      .h {
        fill: #fff;
      }
    </style>
  </defs>
  <path class="d" d="M79.99,22.46H1.43l7.36,79.87,31.91,9.05,31.91-9.05,7.37-79.87Z"/>
  <path class="f" d="M40.71,28.97v75.64l25.86-7.32,6.29-68.32h-32.15Z"/>
  <path class="g" d="M8.62.63h5.01v4.93h4.61V.63h5.01v14.93h-5.01v-4.98h-4.57v4.98h-5.05M29.87,5.61h-4.42V.63h13.87v4.98h-4.44v9.96h-5.01M41.52.63h5.25l3.22,5.26,3.22-5.26h5.25v14.93h-5.01v-7.4l-3.5,5.37-3.5-5.37v7.4h-4.92M60.93.63h5.01v10h7.1v4.93h-12.1"/>
  <path class="e" d="M15.94,38.79h24.82v9.83h-13.98l.91,10.06h13.06v9.8h-22.12l-2.7-29.69ZM19.07,73.42h9.93l.7,7.86,11.06,2.94v10.26l-20.29-5.63-1.39-15.43Z"/>
  <path class="h" d="M65.48,38.79h-24.77v9.83h23.86l.91-9.83ZM63.68,58.68h-22.97v9.83h12.19l-1.15,12.77-11.04,2.94v10.22l20.24-5.58,2.72-30.17Z"/>
</svg>